:SAMPLES-PER-SECOND 30
:FULLY-SPECIFIED
:DEGREES
476
root  -0.703461 31.3532 -75.2629 42.481 -83.5559 -33.6182
RightUpLeg  -5.08944 1.49784 -6.69194
RightLeg  52.3391 -0.606516 -0.743162
RightFoot  7.7134 0.0323294 -0.102004
RightToes  -43.174 -0.244322 -0.332341
Spine  5.28669 -1.51568 -0.261112
Spine1  10.3858 -2.69729 -1.11043
HEad  37.3604 -9.13688 7.88468
LeftShoulder1  0 -2.42657e-020 -4.95415e-022
LeftArm  -27.2345 25.9071 -83.2684
LeftForeArm  -150.949 -40.5162 -8.15837
LeftHand  10.7453 -26.6627 -43.6732
RightShoulder  0 2.42657e-020 1.07489e-018
RightArm  -48.4574 -30.8307 89.1188
RightForeArm  49.1591 76.9066 49.885
RightHand  -0.499447 22.7746 -2.11001
LeftUpLeg  -25.7487 -6.43466 -13.2231
LeftLeg  35.7192 2.65972 1.65874
LeftFoot  -13.9028 -0.0914807 -0.750311
LeftToes  23.9346 1.18758e-006 1.19596e-007
477
root  -3.26378 32.0929 -75.1255 72.7236 -84.5291 -65.092
RightUpLeg  -10.5566 1.6492 -5.80638
RightLeg  51.0402 -3.84207 -4.20936
RightFoot  2.13442 0.0104526 -0.183496
RightToes  -35.2967 -0.182044 -0.287043
Spine  5.27205 -1.59206 0.122113
Spine1  10.3651 -2.87325 -0.491223
HEad  40.8529 -2.15753 4.30571
LeftShoulder1  0 -2.42657e-020 -4.95415e-022
LeftArm  -30.8954 28.4829 -84.5373
LeftForeArm  -149.995 -38.6059 -7.59816
LeftHand  10.6046 -26.7027 -43.0942
RightShoulder  0 2.42657e-020 1.07489e-018
RightArm  -45.5089 -32.9118 87.4085
RightForeArm  109.001 79.7899 97.7592
RightHand  -1.5698 23.7941 -7.07295
LeftUpLeg  -18.5563 -5.27469 -12.009
LeftLeg  31.8118 4.39249 2.34076
LeftFoot  -13.1881 -0.132074 -1.14249
LeftToes  22.1364 1.18758e-006 1.19596e-007
478
root  -5.57407 33.0271 -74.9156 106.718 -83.9314 -99.9709
RightUpLeg  -14.9149 0.501826 -4.58121
RightLeg  43.9674 -6.72354 -5.69454
RightFoot  -1.66421 -0.00135144 0.284619
RightToes  -33.762 -0.170666 -0.277244
Spine  5.26124 -1.50627 0.462397
Spine1  10.3206 -2.65451 -0.081637
HEad  43.1424 4.78405 0.389152
LeftShoulder1  0 -2.42657e-020 -4.95415e-022
LeftArm  -33.7261 30.3516 -86.3357
LeftForeArm  -149.246 -36.7156 -7.07281
LeftHand  10.6113 -26.3052 -43.7272
RightShoulder  0 2.42657e-020 1.07489e-018
RightArm  -40.8664 -30.1529 82.727
RightForeArm  128.957 79.0196 112.99
RightHand  -2.02907 24.7958 -8.84359
LeftUpLeg  -15.4777 0.478335 -10.9758
LeftLeg  33.1051 2.50359 1.40713
LeftFoot  -6.31795 -0.0166877 -0.302374
LeftToes  13.1413 1.18758e-006 1.19596e-007
479
root  -7.68735 33.8542 -74.6605 112.165 -83.5051 -106.602
RightUpLeg  -16.4349 -2.61268 -3.26858
RightLeg  32.8701 -6.89695 -3.84744
RightFoot  -3.78177 0.00510319 0.532223
RightToes  -35.7072 -0.18513 -0.289611
Spine  5.65934 -1.54661 0.634956
Spine1  11.0817 -2.6461 -0.10088
HEad  44.061 8.11056 -1.96286
LeftShoulder1  0 -2.42657e-020 -4.95415e-022
LeftArm  -33.8105 29.6545 -86.8726
LeftForeArm  -149.074 -35.3355 -6.70539
LeftHand  10.6175 -26.1332 -44.0183
RightShoulder  0 2.42657e-020 1.07489e-018
RightArm  -38.6597 -23.6321 78.7688
RightForeArm  116.812 79.8753 93.0423
RightHand  -2.75604 23.6958 -12.7162
LeftUpLeg  -17.3181 7.29468 -9.34905
LeftLeg  42.382 -3.18063 -2.55097
LeftFoot  5.94228 0.0183964 -0.354449
LeftToes  -0.114749 1.18758e-006 1.19596e-007
480
root  -9.64053 34.3075 -74.3615 102.232 -84.0009 -97.6801
RightUpLeg  -16.5668 -5.65036 -2.46219
RightLeg  22.5561 -2.69941 -0.92483
RightFoot  0.104856 0.000365035 -0.0212423
RightToes  -44.0306 -0.251456 -0.33674
Spine  6.29497 -1.10046 0.624718
Spine1  12.3076 -1.65481 -0.415674
HEad  43.3673 6.36896 -2.20555
LeftShoulder1  0 -2.42657e-020 -4.95415e-022
LeftArm  -30.3432 27.7695 -86.0521
LeftForeArm  -149.694 -36.5893 -7.03837
LeftHand  10.7556 -26.5318 -43.9123
RightShoulder  0 2.42657e-020 1.07489e-018
RightArm  -41.5528 -16.3976 75.395
RightForeArm  76.8466 75.5157 43.4293
RightHand  -4.44425 19.8835 -24.6029
LeftUpLeg  -23.1647 9.09019 -7.71804
LeftLeg  55.4466 -6.71998 -8.45631
LeftFoot  18.549 0.544786 -3.33521
LeftToes  -19.0882 1.18758e-006 1.19596e-007
